<svg xmlns="http://www.w3.org/2000/svg" viewBox="0 0 64 64">
  <defs>
    <radialGradient id="ocean" cx="42%" cy="36%" r="62%">
      <stop offset="0%" stop-color="#8ad6ff"/>
      <stop offset="65%" stop-color="#2d7ad3"/>
      <stop offset="100%" stop-color="#1a4a8f"/>
    </radialGradient>
  </defs>
  <rect width="64" height="64" fill="#05070c"/>
  <circle cx="32" cy="32" r="22" fill="url(#ocean)"/>
  <path d="M19 23c6-4 10-3 13 1 2 3-1 6-5 7-4 2-7-1-8-4z" fill="#74b96f"/>
  <path d="M31 33c4-3 8-2 11 1 2 2 0 6-4 7-4 2-8 0-9-3z" fill="#6fb76b"/>
  <path d="M40 21c3-1 6 1 7 4 1 3-2 5-5 5-3 0-5-2-5-4 0-2 1-4 3-5z" fill="#8fca7c"/>
</svg>
